<svg width="32" height="32" viewBox="0 0 32 32" fill="none" xmlns="http://www.w3.org/2000/svg">
  <!-- Background circle -->
  <circle cx="16" cy="16" r="15" fill="#3B82F6" stroke="#1E40AF" stroke-width="1"/>
  
  <!-- Book -->
  <path d="M8 12C8 11.4477 8.44772 11 9 11H23C23.5523 11 24 11.4477 24 12V22C24 22.5523 23.5523 23 23 23H9C8.44772 23 8 22.5523 8 22V12Z" fill="white"/>
  
  <!-- Book pages -->
  <path d="M10 12H22V22H10V12Z" fill="#F8FAFC"/>
  <line x1="13" y1="15" x2="19" y2="15" stroke="#64748B" stroke-width="0.5"/>
  <line x1="13" y1="17" x2="17" y2="17" stroke="#64748B" stroke-width="0.5"/>
  <line x1="13" y1="19" x2="15" y2="19" stroke="#64748B" stroke-width="0.5"/>
  
  <!-- Graduation cap -->
  <path d="M12 8C12 7.44772 12.4477 7 13 7H19C19.5523 7 20 7.44772 20 8V9H12V8Z" fill="#F59E0B"/>
  <path d="M11 9L16 12L21 9" stroke="#D97706" stroke-width="1" fill="none"/>
</svg> 