<svg width="48" height="48" viewBox="0 0 48 48" fill="none" xmlns="http://www.w3.org/2000/svg">
  <!-- Background circle -->
  <circle cx="24" cy="24" r="22" fill="#3B82F6" stroke="#1E40AF" stroke-width="2"/>
  
  <!-- Book -->
  <path d="M12 18C12 16.8954 12.8954 16 14 16H34C35.1046 16 36 16.8954 36 18V32C36 33.1046 35.1046 34 34 34H14C12.8954 34 12 33.1046 12 32V18Z" fill="white"/>
  <path d="M14 16L16 14H32L34 16" stroke="#1E40AF" stroke-width="1.5" fill="none"/>
  
  <!-- Book pages -->
  <path d="M16 18H32V32H16V18Z" fill="#F8FAFC"/>
  <line x1="20" y1="22" x2="28" y2="22" stroke="#64748B" stroke-width="1"/>
  <line x1="20" y1="25" x2="26" y2="25" stroke="#64748B" stroke-width="1"/>
  <line x1="20" y1="28" x2="24" y2="28" stroke="#64748B" stroke-width="1"/>
  
  <!-- Graduation cap -->
  <path d="M18 12C18 10.8954 18.8954 10 20 10H28C29.1046 10 30 10.8954 30 12V14H18V12Z" fill="#F59E0B"/>
  <path d="M16 14L24 18L32 14" stroke="#D97706" stroke-width="2" fill="none"/>
  <path d="M24 18V22" stroke="#D97706" stroke-width="2" fill="none"/>
  
  <!-- Tassel -->
  <circle cx="24" cy="22" r="1" fill="#D97706"/>
  <path d="M24 23L22 25L24 27L26 25L24 23Z" fill="#D97706"/>
</svg> 